<svg width="1347" height="798" viewBox="0 0 1347 798" fill="none" xmlns="http://www.w3.org/2000/svg">
<path d="M632.242 343.461C627.848 347.855 623.062 351.762 617.887 355.18C612.711 358.598 607.438 361.625 602.066 364.262C596.695 366.801 591.275 368.998 585.807 370.854C580.436 372.611 575.26 374.125 570.279 375.395C558.561 378.324 546.793 380.18 534.977 380.961C518.277 380.766 503.189 378.227 489.713 373.344C476.236 368.559 464.762 361.771 455.289 352.982C445.816 344.096 438.541 333.354 433.463 320.756C428.385 308.061 425.846 293.803 425.846 277.982C425.846 264.994 428.189 252.934 432.877 241.801C437.662 230.668 444.059 220.561 452.066 211.479C460.074 202.299 469.352 194.242 479.898 187.309C490.445 180.277 501.529 174.369 513.15 169.584C524.771 164.799 536.539 161.186 548.453 158.744C560.465 156.205 571.891 154.936 582.73 154.936C585.953 154.936 589.42 155.033 593.131 155.229C596.939 155.326 600.65 155.57 604.264 155.961C607.975 156.352 611.441 156.938 614.664 157.719C617.984 158.402 620.719 159.379 622.867 160.648C625.113 161.918 626.676 163.48 627.555 165.336C628.434 167.094 628.287 169.242 627.115 171.781C625.65 172.66 623.258 174.223 619.938 176.469C617.008 178.422 612.857 181.107 607.486 184.525C602.213 187.943 595.133 192.484 586.246 198.148C588.785 196.488 590.641 194.926 591.812 193.461C592.984 191.996 593.57 190.58 593.57 189.213C593.57 187.064 592.594 185.16 590.641 183.5C588.785 181.84 586.393 180.424 583.463 179.252C580.533 178.08 577.262 177.152 573.648 176.469C570.035 175.688 566.568 175.102 563.248 174.711C559.928 174.223 556.9 173.93 554.166 173.832C551.432 173.637 549.43 173.539 548.16 173.539C519.645 173.539 498.111 180.814 483.561 195.365C469.01 209.916 461.734 231.449 461.734 259.965C461.734 275.004 464.176 288.432 469.059 300.248C473.941 312.064 480.68 322.221 489.273 330.717C497.867 339.115 508.072 345.805 519.889 350.785C531.705 355.766 544.547 358.891 558.414 360.16C566.129 360.648 574.137 360.355 582.438 359.281C589.566 358.402 597.477 356.791 606.168 354.447C614.957 352.104 623.648 348.441 632.242 343.461ZM828.678 346.391C817.838 353.227 807.242 358.744 796.891 362.943C786.539 367.045 776.139 370.17 765.689 372.318C755.24 374.564 744.596 375.932 733.756 376.42C722.916 376.908 711.637 376.908 699.918 376.42C696.109 376.322 692.74 376.176 689.811 375.98C686.881 375.785 684.439 375.102 682.486 373.93C680.631 372.855 679.215 371.049 678.238 368.51C677.262 365.971 676.773 362.309 676.773 357.523C676.773 355.082 676.773 350.834 676.773 344.779C676.871 338.725 676.92 331.547 676.92 323.246C677.018 314.848 677.115 305.717 677.213 295.854C677.311 285.893 677.408 275.834 677.506 265.678C677.604 255.521 677.701 245.609 677.799 235.941C677.896 226.176 677.994 217.338 678.092 209.428C678.189 201.518 678.287 194.877 678.385 189.506C678.482 184.037 678.58 180.521 678.678 178.959C678.775 177.201 678.385 175.736 677.506 174.564C676.725 173.393 675.602 172.465 674.137 171.781C672.77 171 671.109 170.463 669.156 170.17C667.203 169.877 665.152 169.73 663.004 169.73C659.586 169.73 655.875 170.072 651.871 170.756C647.965 171.342 644.254 172.074 640.738 172.953C645.719 169.73 650.602 166.752 655.387 164.018C660.27 161.186 665.152 158.793 670.035 156.84C674.918 154.789 679.898 153.178 684.977 152.006C690.055 150.834 695.328 150.248 700.797 150.248C702.945 150.248 704.996 150.395 706.949 150.688C708.902 150.883 710.611 151.273 712.076 151.859C713.541 152.348 714.713 153.08 715.592 154.057C716.471 154.936 716.861 156.059 716.764 157.426C716.764 161.137 716.666 170.414 716.471 185.258C716.373 191.605 716.275 199.467 716.178 208.842C716.08 218.217 715.934 229.545 715.738 242.826C715.641 256.107 715.494 271.586 715.299 289.262C715.201 306.84 715.055 327.006 714.859 349.76C724.039 350.834 732.682 351.615 740.787 352.104C748.893 352.494 756.559 352.689 763.785 352.689C773.941 352.689 783.023 352.396 791.031 351.811C799.039 351.127 805.826 350.395 811.393 349.613C817.936 348.637 823.697 347.562 828.678 346.391ZM940.738 340.092C933.316 346.049 926.188 351.127 919.352 355.326C912.613 359.428 906.314 362.797 900.455 365.434C894.596 368.07 889.225 369.975 884.342 371.146C879.557 372.416 875.357 373.051 871.744 373.051C869.107 373.051 867.057 372.367 865.592 371C864.225 369.535 863.248 367.533 862.662 364.994C862.076 362.357 861.734 359.232 861.637 355.619C861.637 352.006 861.686 348.051 861.783 343.754C861.881 339.555 862.076 332.621 862.369 322.953C862.467 318.852 862.564 313.969 862.662 308.305C862.857 302.543 863.004 295.854 863.102 288.236C863.297 280.521 863.492 271.83 863.688 262.162C863.883 252.396 864.078 241.459 864.273 229.35L836.295 241.947C850.26 232.572 861.539 225.053 870.133 219.389C878.727 213.627 885.367 209.184 890.055 206.059C895.523 202.348 899.43 199.711 901.773 198.148C901.383 215.141 901.041 230.229 900.748 243.412C900.455 256.498 900.211 268.021 900.016 277.982C899.82 287.846 899.625 296.293 899.43 303.324C899.234 310.355 899.088 316.215 898.99 320.902C898.697 332.035 898.502 339.018 898.404 341.85C898.404 343.51 899.43 344.682 901.48 345.365C903.531 346.049 906.217 346.391 909.537 346.391C911.979 346.391 914.615 346.244 917.447 345.951C920.377 345.561 923.258 345.072 926.09 344.486C928.922 343.9 931.607 343.266 934.146 342.582C936.686 341.801 938.883 340.971 940.738 340.092ZM1061.73 340.092C1054.31 346.049 1047.18 351.127 1040.35 355.326C1033.61 359.428 1027.31 362.797 1021.45 365.434C1015.59 368.07 1010.22 369.975 1005.34 371.146C1000.55 372.416 996.354 373.051 992.74 373.051C990.104 373.051 988.053 372.367 986.588 371C985.221 369.535 984.244 367.533 983.658 364.994C983.072 362.357 982.73 359.232 982.633 355.619C982.633 352.006 982.682 348.051 982.779 343.754C982.877 339.555 983.072 332.621 983.365 322.953C983.463 318.852 983.561 313.969 983.658 308.305C983.854 302.543 984 295.854 984.098 288.236C984.293 280.521 984.488 271.83 984.684 262.162C984.879 252.396 985.074 241.459 985.27 229.35L957.291 241.947C971.256 232.572 982.535 225.053 991.129 219.389C999.723 213.627 1006.36 209.184 1011.05 206.059C1016.52 202.348 1020.43 199.711 1022.77 198.148C1022.38 215.141 1022.04 230.229 1021.74 243.412C1021.45 256.498 1021.21 268.021 1021.01 277.982C1020.82 287.846 1020.62 296.293 1020.43 303.324C1020.23 310.355 1020.08 316.215 1019.99 320.902C1019.69 332.035 1019.5 339.018 1019.4 341.85C1019.4 343.51 1020.43 344.682 1022.48 345.365C1024.53 346.049 1027.21 346.391 1030.53 346.391C1032.97 346.391 1035.61 346.244 1038.44 345.951C1041.37 345.561 1044.25 345.072 1047.09 344.486C1049.92 343.9 1052.6 343.266 1055.14 342.582C1057.68 341.801 1059.88 340.971 1061.73 340.092Z" fill="white"/>
<path opacity="0.5" d="M70.4223 276.658L446.296 81.3186C448.047 80.4731 450.145 81.639 450.208 83.3947L453.759 182.467L265.349 280.316C263.598 281.162 263.678 283.419 265.493 284.329L461.167 389.14L464.7 487.71C464.763 489.466 462.746 490.557 460.931 489.647L70.5661 280.671C68.8841 279.638 68.8032 277.381 70.4223 276.658Z" fill="#2E4572"/>
<path opacity="0.5" d="M609.033 289.732L231.077 481.68C229.316 482.51 227.231 481.325 227.187 479.569L224.701 380.47L414.155 284.32C415.916 283.49 415.859 281.232 414.054 280.306L219.517 173.741L217.044 75.1429C217 73.3867 219.029 72.3135 220.834 73.24L608.932 285.718C610.603 286.766 610.66 289.024 609.033 289.732Z" fill="#FF00A8"/>
<path opacity="0.5" d="M844.112 294.868L466.156 486.817C464.396 487.647 462.31 486.462 462.266 484.706L459.781 385.606L649.234 289.457C650.995 288.627 650.938 286.369 649.133 285.443L454.596 178.877L452.123 80.2794C452.079 78.5232 454.108 77.45 455.913 78.3764L844.012 290.854C845.683 291.902 845.739 294.16 844.112 294.868Z" fill="#A600FF"/>
</svg>
